<svg width="16" height="16" viewBox="0 0 16 16" fill="none" xmlns="http://www.w3.org/2000/svg">
<path d="M10.6665 4.00002L5.05719 9.72402C4.80709 9.97412 4.66659 10.3133 4.66659 10.667C4.66659 11.0207 4.80709 11.3599 5.05719 11.61C5.30729 11.8601 5.6465 12.0006 6.00019 12.0006C6.35388 12.0006 6.69309 11.8601 6.94319 11.61L12.5525 5.88602C13.0526 5.38591 13.3336 4.70762 13.3336 4.00035C13.3336 3.29309 13.0526 2.6148 12.5525 2.11469C12.0524 1.61458 11.3741 1.33362 10.6669 1.33362C9.95959 1.33362 9.2813 1.61458 8.78119 2.11469L3.19519 7.81535C2.81879 8.18567 2.51943 8.62685 2.31439 9.11344C2.10934 9.60004 2.00267 10.1224 2.00052 10.6504C1.99837 11.1785 2.10079 11.7017 2.30186 12.1899C2.50294 12.6782 2.79869 13.1218 3.17206 13.4951C3.54543 13.8685 3.98904 14.1643 4.47728 14.3653C4.96553 14.5664 5.48875 14.6688 6.01678 14.6667C6.5448 14.6645 7.06717 14.5579 7.55377 14.3528C8.04036 14.1478 8.48154 13.8484 8.85186 13.472L14.4379 7.77135" stroke="#B3B3B3" stroke-width="1.33333" stroke-linecap="round" stroke-linejoin="round"/>
</svg>
