<svg width="64" height="64" viewBox="0 0 64 64" fill="none" xmlns="http://www.w3.org/2000/svg">
<g clip-path="url(#clip0_29_87)">
<path d="M41.9201 10.6636C40.9265 11.0946 39.8608 11.4625 38.7847 11.7738C35.9539 12.5925 33.0862 13.0099 31.3565 13.1643L31.373 13.5361C34.5192 13.5361 37.5027 14.0792 39.9687 14.8611C40.7763 15.1172 41.5268 15.3984 42.2082 15.6936H14.4928C13.1516 15.6937 13.1291 17.211 13.2856 17.9696C13.3929 20.0581 15.6552 22.9008 16.773 24.061C16.934 24.543 21.9817 27.9427 24.4854 29.5823C27.8654 31.8573 29.0681 34.302 29.2469 35.2399C29.8907 36.3645 29.3364 38.7876 28.9787 39.8586C27.9727 41.666 25.5807 43.9196 24.4854 44.6113L24.4339 44.6445C23.7888 45.0687 19.6804 47.9828 17.6448 49.431L17.5946 49.4714C15.4751 51.1932 13.9781 54.2738 13.4918 55.6083C12.7036 57.89 13.7039 58.5821 14.3292 58.6499L14.3587 58.6526H47.0178C48.3581 58.5864 48.3059 56.812 48.1123 55.933C47.389 51.8283 40.8915 46.9371 37.5837 44.9067L37.4287 44.8121C34.8535 43.2591 33.1366 40.8627 32.6001 39.8586C31.6881 38.3592 31.9966 36.1547 32.2648 35.2399C32.8013 32.9908 35.693 30.5311 37.0718 29.5823C39.8444 27.9481 43.2489 25.2206 44.6046 24.061C45.9197 22.6455 46.7813 21.369 47.3266 20.3358C48.0249 21.8434 48.4789 23.5959 48.8076 25.3143C48.8933 25.7624 48.9702 26.2068 49.0408 26.6425C48.8029 26.9206 48.5527 27.2015 48.2897 27.4846L48.0934 27.696L47.874 27.8836C46.4759 29.0794 42.9198 31.9438 39.8076 33.8076C39.3544 34.1326 38.6356 34.7169 38.0021 35.3849C37.664 35.7413 37.4153 36.0535 37.2554 36.2975C37.1891 36.3988 37.1525 36.4662 37.1352 36.5003L37.1277 36.5319L37.0916 36.6552C37.0979 36.6338 37.0752 36.7109 37.0529 36.8635C37.0317 37.009 37.0192 37.1658 37.0198 37.3103C37.0201 37.3776 37.0232 37.4307 37.0267 37.4698L37.0366 37.4881C37.0939 37.5955 37.4171 38.1226 38.0062 38.7843C38.5624 39.4088 39.2318 40.0128 39.956 40.4618L40.0262 40.5048L40.0294 40.5066L40.0327 40.5086C41.8907 41.6328 44.6646 43.5693 47.1344 45.8579C48.3727 47.0053 49.632 48.3306 50.6708 49.7713C51.6603 51.1436 52.6662 52.9163 53.0483 54.9625C53.2263 55.8241 53.386 57.2436 53.0402 58.7341C52.8509 59.5505 52.4276 60.7396 51.4221 61.7943C50.3089 62.9619 48.8259 63.5994 47.2661 63.6763L47.142 63.6825H14.1612L13.9642 63.6669C12.1914 63.5275 10.0726 62.5288 8.91725 60.2798C7.8005 58.1058 8.10725 55.7902 8.7375 53.9658L8.75131 53.9259L8.76575 53.8862C9.12481 52.9009 9.77125 51.4845 10.6531 50.0387C11.5153 48.625 12.7911 46.8698 14.5061 45.5003L14.6152 45.4132L14.7289 45.3323C16.6767 43.9466 21.1141 40.7955 21.7997 40.3585L21.7997 40.3583C21.7871 40.3663 21.9366 40.2668 22.2397 40.0076C22.5173 39.7703 22.8442 39.4673 23.1779 39.1278C23.695 38.6016 24.0922 38.1262 24.3454 37.7763C24.3514 37.7517 24.3574 37.7265 24.3634 37.7008C24.4167 37.4725 24.4586 37.2465 24.4847 37.0456L24.4636 37.0086L24.3522 36.425C24.2984 36.319 24.1934 36.1358 24.0157 35.8945C23.6244 35.3628 22.9079 34.5868 21.6945 33.7673C20.4174 32.9305 18.5043 31.6536 16.8685 30.51C16.0507 29.9383 15.2516 29.3646 14.6242 28.8812C14.3196 28.6466 13.9834 28.3781 13.6856 28.1105C13.5422 27.9816 13.3304 27.7842 13.1136 27.5423C13.092 27.5183 12.9929 27.4133 12.8573 27.2389C12.138 26.456 11.2266 25.3378 10.4206 24.0855C9.65662 22.8983 8.51393 20.8833 8.29068 18.605C8.15218 17.7177 8.09218 16.3858 8.54262 14.9961C8.82612 14.1216 9.39643 12.9784 10.5304 12.0502C11.7279 11.07 13.1474 10.6636 14.4928 10.6636H41.9201ZM50.4867 0.331726C50.6191 2.23068 51.1226 7.14145 53.6663 9.4732C56.9784 12.7853 60.2905 12.6528 64.0001 13.1828C61.4387 13.6685 55.8656 15.0111 54.0637 17.0248C52.9597 18.173 50.6986 21.5823 50.4867 26.5637C50.4425 24.3998 49.6652 19.5685 46.9096 17.0248C45.3639 15.6558 41.6102 13.1828 37.1057 13.1828C39.5787 12.962 45.2984 11.9904 47.572 9.4732C49.1276 7.75089 50.5926 3.93532 50.4867 0.331726Z" fill="url(#paint0_linear_29_87)"/>
</g>
<defs>
<linearGradient id="paint0_linear_29_87" x1="53.827" y1="9.3042" x2="14.2666" y2="57.0213" gradientUnits="userSpaceOnUse">
<stop stop-color="#10A37F"/>
<stop offset="1" stop-color="#063D30"/>
</linearGradient>
<clipPath id="clip0_29_87">
<rect width="64" height="64" fill="white"/>
</clipPath>
</defs>
</svg>
